# xmcd
#
# Track frame offsets: 
#        150
#        13420
#        24489
#        34831
#        44165
#        55131
#        66982
#        80374
#        91871
#        104755
#        117495
#        132929
#        143920
#        153903
#        165852
#        175770
#        186902
#        196776
#        209007
#        218595
#        232712
#
# Disc length: 3250 seconds
#
# Revision: 0
# Processed by: cddbd v1.5.2PL0 Copyright (c) Steve Scherf et al.
# Submitted via: ExactAudioCopyFreeDBPlugin 1.0
#
DISCID=250cb015
DTITLE=Various Artist - Road Of The Deep Niagara ナイアガラの奥の細道~ルーツ・オブ・ナイ
DTITLE=アガラ・ポップス [CD3]
DYEAR=2017
DGENRE=Oldies
TTITLE0=The Honeycombs - Colour Slide
TTITLE1=Gary Lewis And The Playboys - Everybody Loves A Clown
TTITLE2=David Jones - Dream Girl
TTITLE3=The Everly Brothers - That's What You Do To Me
TTITLE4=Junior Parker - Foxy Devil
TTITLE5=Dave Clark Five - Hurting Inside
TTITLE6=Cliff Richard - I Could Easily Fall (In Love With You)
TTITLE7=The Swinging Blue Jeans - Sandy
TTITLE8=Shirley Ellis - The Clapping Song (Clap Pat Clap Slap)
TTITLE9=The Alley Cats - Puddin N' Tain (Ask Me Again, I'll Tell You T
TTITLE9=he Same)
TTITLE10=Neil Sedaka - The World Through A Tear
TTITLE11=P.F.Sloan - I Found A Girl
TTITLE12=Donna Lynn - My Boyfriend Got A Beatle Haircut
TTITLE13=The Shadows - Theme For Young Lovers
TTITLE14=John Leyton - Lonely City
TTITLE15=The Tornados - Life On Venus
TTITLE16=Dave Clark Five - Try Too Hard
TTITLE17=The Searchers - Where Have You Been
TTITLE18=Lesley Gore - Danny
TTITLE19=Matt Monro - Walk Away
TTITLE20=Santo and Johnny - Sleep Walk
EXTD=
EXTT0=
EXTT1=
EXTT2=
EXTT3=
EXTT4=
EXTT5=
EXTT6=
EXTT7=
EXTT8=
EXTT9=
EXTT10=
EXTT11=
EXTT12=
EXTT13=
EXTT14=
EXTT15=
EXTT16=
EXTT17=
EXTT18=
EXTT19=
EXTT20=
PLAYORDER=
